<svg xmlns="http://www.w3.org/2000/svg" width="1200" height="630" viewBox="0 0 1200 630">
  <rect width="1200" height="630" fill="#0f0f1a"/>
  <rect x="40" y="40" width="1120" height="550" rx="16" fill="#1a1a2e" stroke="#4361ee" stroke-width="3"/>
  
  <!-- Header accent -->
  <rect x="40" y="40" width="1120" height="8" rx="4" fill="#4361ee"/>
  
  <!-- Logo area -->
  <circle cx="120" cy="140" r="40" fill="#4361ee"/>
  <text x="120" y="148" text-anchor="middle" fill="white" font-family="Arial" font-weight="bold" font-size="28">S</text>
  
  <!-- Title -->
  <text x="180" y="125" fill="white" font-family="Arial" font-weight="bold" font-size="42">Shuicici Data Services</text>
  <text x="180" y="160" fill="#9090a0" font-family="Arial" font-size="22">Web Scraping &amp; Data Extraction</text>
  
  <!-- Divider -->
  <line x1="60" y1="200" x2="1140" y2="200" stroke="#2a2a4a" stroke-width="2"/>
  
  <!-- Stats row -->
  <text x="200" y="270" fill="#4361ee" font-family="Arial" font-weight="bold" font-size="56">17+</text>
  <text x="200" y="305" fill="#9090a0" font-family="Arial" font-size="20">Production Scrapers</text>
  
  <text x="480" y="270" fill="#4361ee" font-family="Arial" font-weight="bold" font-size="56">$15</text>
  <text x="480" y="305" fill="#9090a0" font-family="Arial" font-size="20">Starting Price</text>
  
  <text x="760" y="270" fill="#4361ee" font-family="Arial" font-weight="bold" font-size="56">24h</text>
  <text x="760" y="305" fill="#9090a0" font-family="Arial" font-size="20">Fast Delivery</text>
  
  <!-- Services tags -->
  <rect x="80" y="340" width="180" height="44" rx="22" fill="#4361ee" opacity="0.2"/>
  <text x="170" y="370" text-anchor="middle" fill="#4361ee" font-family="Arial" font-size="18" font-weight="600">E-Commerce</text>
  
  <rect x="280" y="340" width="160" height="44" rx="22" fill="#7209b7" opacity="0.2"/>
  <text x="360" y="370" text-anchor="middle" fill="#a855f7" font-family="Arial" font-size="18" font-weight="600">Recruiting</text>
  
  <rect x="460" y="340" width="180" height="44" rx="22" fill="#4361ee" opacity="0.2"/>
  <text x="550" y="370" text-anchor="middle" fill="#4361ee" font-family="Arial" font-size="18" font-weight="600">Real Estate</text>
  
  <rect x="660" y="340" width="200" height="44" rx="22" fill="#7209b7" opacity="0.2"/>
  <text x="760" y="370" text-anchor="middle" fill="#a855f7" font-family="Arial" font-size="18" font-weight="600">Social Media</text>
  
  <rect x="880" y="340" width="220" height="44" rx="22" fill="#4361ee" opacity="0.2"/>
  <text x="990" y="370" text-anchor="middle" fill="#4361ee" font-family="Arial" font-size="18" font-weight="600">China Market</text>
  
  <!-- CTA -->
  <rect x="360" y="440" width="480" height="70" rx="12" fill="#4361ee"/>
  <text x="600" y="485" text-anchor="middle" fill="white" font-family="Arial" font-weight="bold" font-size="26">🌐 shuicici.github.io</text>
  
  <!-- Footer -->
  <text x="600" y="560" text-anchor="middle" fill="#505060" font-family="Arial" font-size="18">Built on Apify • JSON &amp; CSV Output • Free Consultation</text>
</svg>
